{
  "accessors": [
    {
      "bufferView": 2,
      "componentType": 5126,
      "count": 65532,
      "max": [
        0.17853790521621704,
        0.26434028148651123,
        0.74278974533081055
      ],
      "min": [
        -0.34924790263175964,
        -0.22381651401519775,
        -0.91413116455078125
      ],
      "type": "VEC3"
    },
    {
      "bufferView": 2,
      "byteOffset": 786384,
      "componentType": 5126,
      "count": 65532,
      "max": [
        0.99998903274536133,
        0.99967187643051147,
        0.99998527765274048
      ],
      "min": [
        -0.99998527765274048,
        -0.99999719858169556,
        -0.99982857704162598
      ],
      "type": "VEC3"
    },
    {
      "bufferView": 1,
      "componentType": 5126,
      "count": 65532,
      "max": [
        0.6812744140625,
        0.9996337890625
      ],
      "min": [
        0.0003662109375,
        0.3499755859375
      ],
      "type": "VEC2"
    },
    {
      "bufferView": 3,
      "componentType": 5126,
      "count": 65532,
      "max": [
        0.9999881386756897,
        0.99996817111968994,
        0.99993687868118286,
        1
      ],
      "min": [
        -0.9999968409538269,
        -0.99994814395904541,
        -0.99991661310195923,
        -1
      ],
      "type": "VEC4"
    },
    {
      "bufferView": 0,
      "componentType": 5125,
      "count": 228444,
      "max": [
        65531
      ],
      "min": [
        0
      ],
      "type": "SCALAR"
    },
    {
      "bufferView": 2,
      "byteOffset": 1572768,
      "componentType": 5126,
      "count": 65532,
      "max": [
        0.30060476064682007,
        0.24664723873138428,
        0.89060604572296143
      ],
      "min": [
        -0.27482962608337402,
        -0.29131007194519043,
        -0.91618287563323975
      ],
      "type": "VEC3"
    },
    {
      "bufferView": 2,
      "byteOffset": 2359152,
      "componentType": 5126,
      "count": 65532,
      "max": [
        0.99998980760574341,
        0.99994462728500366,
        0.99999922513961792
      ],
      "min": [
        -0.99999135732650757,
        -0.99999982118606567,
        -0.99995899200439453
      ],
      "type": "VEC3"
    },
    {
      "bufferView": 1,
      "byteOffset": 524256,
      "componentType": 5126,
      "count": 65532,
      "max": [
        0.6676025390625,
        0.9859619140625
      ],
      "min": [
        0.0120849609375,
        0.3616943359375
      ],
      "type": "VEC2"
    },
    {
      "bufferView": 3,
      "byteOffset": 1048512,
      "componentType": 5126,
      "count": 65532,
      "max": [
        0.99999862909317017,
        0.99999922513961792,
        0.99999982118606567,
        1
      ],
      "min": [
        -0.99999648332595825,
        -0.99994915723800659,
        -0.99998366832733154,
        -1
      ],
      "type": "VEC4"
    },
    {
      "bufferView": 0,
      "byteOffset": 913776,
      "componentType": 5125,
      "count": 218637,
      "max": [
        65531
      ],
      "min": [
        0
      ],
      "type": "SCALAR"
    },
    {
      "bufferView": 2,
      "byteOffset": 3145536,
      "componentType": 5126,
      "count": 39702,
      "max": [
        0.30060476064682007,
        0.35613143444061279,
        0.98757123947143555
      ],
      "min": [
        -0.27900376915931702,
        -0.066725850105285645,
        -0.91405487060546875
      ],
      "type": "VEC3"
    },
    {
      "bufferView": 2,
      "byteOffset": 3621960,
      "componentType": 5126,
      "count": 39702,
      "max": [
        0.99992460012435913,
        0.99999886751174927,
        0.99991559982299805
      ],
      "min": [
        -0.99998104572296143,
        -0.99999982118606567,
        -0.99982857704162598
      ],
      "type": "VEC3"
    },
    {
      "bufferView": 1,
      "byteOffset": 1048512,
      "componentType": 5126,
      "count": 39702,
      "max": [
        0.6539306640625,
        0.9722900390625
      ],
      "min": [
        0.0277099609375,
        0.3773193359375
      ],
      "type": "VEC2"
    },
    {
      "bufferView": 3,
      "byteOffset": 2097024,
      "componentType": 5126,
      "count": 39702,
      "max": [
        0.99999731779098511,
        0.99999576807022095,
        0.99999982118606567,
        1
      ],
      "min": [
        -0.99999338388442993,
        -0.99999374151229858,
        -0.99898821115493774,
        -1
      ],
      "type": "VEC4"
    },
    {
      "bufferView": 0,
      "byteOffset": 1788324,
      "componentType": 5125,
      "count": 152919,
      "max": [
        39701
      ],
      "min": [
        0
      ],
      "type": "SCALAR"
    }
  ],
  "asset": {
    "generator": "Sketchfab (OSG glTF plugin)",
    "version": "2.0"
  },
  "bufferViews": [
    {
      "buffer": 0,
      "byteLength": 2400000,
      "byteOffset": 0,
      "name": "ScalarBufferView",
      "target": 34963
    },
    {
      "buffer": 0,
      "byteLength": 1366128,
      "byteOffset": 2400000,
      "byteStride": 8,
      "name": "Vec3BufferView",
      "target": 34962
    },
    {
      "buffer": 0,
      "byteLength": 4098384,
      "byteOffset": 3766128,
      "byteStride": 12,
      "name": "Vec4BufferView",
      "target": 34962
    },
    {
      "buffer": 0,
      "byteLength": 2732256,
      "byteOffset": 7864512,
      "byteStride": 16,
      "name": "MatrixBufferView",
      "target": 34962
    }
  ],
  "buffers": [
    {
      "byteLength": 10596768,
      "uri": "scene.bin"
    }
  ],
  "extensionsRequired": [
    "KHR_materials_pbrSpecularGlossiness"
  ],
  "extensionsUsed": [
    "KHR_materials_pbrSpecularGlossiness"
  ],
  "images": [
    {
      "uri": "textures/material_0_diffuse.jpg"
    }
  ],
  "materials": [
    {
      "doubleSided": true,
      "emissiveFactor": [
        0,
        0,
        0
      ],
      "extensions": {
        "KHR_materials_pbrSpecularGlossiness": {
          "diffuseFactor": [
            1,
            1,
            1,
            1
          ],
          "diffuseTexture": {
            "index": 0,
            "texCoord": 0
          },
          "glossinessFactor": 0,
          "specularFactor": [
            0,
            0,
            0
          ]
        }
      },
      "name": "material_0",
      "occlusionFactor": 1
    }
  ],
  "meshes": [
    {
      "primitives": [
        {
          "attributes": {
            "NORMAL": 1,
            "POSITION": 0,
            "TANGENT": 3,
            "TEXCOORD_0": 2
          },
          "indices": 4,
          "material": 0,
          "mode": 4
        },
        {
          "attributes": {
            "NORMAL": 6,
            "POSITION": 5,
            "TANGENT": 8,
            "TEXCOORD_0": 7
          },
          "indices": 9,
          "material": 0,
          "mode": 4
        },
        {
          "attributes": {
            "NORMAL": 11,
            "POSITION": 10,
            "TANGENT": 13,
            "TEXCOORD_0": 12
          },
          "indices": 14,
          "material": 0,
          "mode": 4
        }
      ]
    }
  ],
  "nodes": [
    {
      "children": [
        1
      ],
      "name": "RootNode (gltf orientation matrix)",
      "rotation": [
        -0.70710678118654746,
        -0,
        -0,
        0.70710678118654757
      ]
    },
    {
      "children": [
        2
      ],
      "name": "RootNode (model correction matrix)"
    },
    {
      "children": [
        3
      ],
      "name": "model_mesh.obj.cleaner"
    },
    {
      "mesh": 0,
      "name": ""
    }
  ],
  "samplers": [
    {
      "magFilter": 9729,
      "minFilter": 9987,
      "wrapS": 10497,
      "wrapT": 10497
    }
  ],
  "scene": 0,
  "scenes": [
    {
      "name": "OSG_Scene",
      "nodes": [
        0
      ]
    }
  ],
  "textures": [
    {
      "sampler": 0,
      "source": 0
    }
  ]
}

